<svg width="36" height="36" viewBox="0 0 36 36" fill="none" xmlns="http://www.w3.org/2000/svg">
    <path
        d="M18 18.6948L12.8518 23.843C12.7602 23.9346 12.6477 23.9836 12.5142 23.9902C12.3808 23.9967 12.2617 23.9477 12.157 23.843C12.0523 23.7383 12 23.6225 12 23.4956C12 23.3687 12.0523 23.2529 12.157 23.1482L17.3052 18L12.157 12.8518C12.0654 12.7602 12.0164 12.6477 12.0098 12.5142C12.0033 12.3808 12.0523 12.2617 12.157 12.157C12.2617 12.0523 12.3775 12 12.5044 12C12.6313 12 12.7471 12.0523 12.8518 12.157L18 17.3052L23.1482 12.157C23.2398 12.0654 23.3526 12.0164 23.4868 12.0098C23.6196 12.0033 23.7383 12.0523 23.843 12.157C23.9477 12.2617 24 12.3775 24 12.5044C24 12.6313 23.9477 12.7471 23.843 12.8518L18.6948 18L23.843 23.1482C23.9346 23.2398 23.9836 23.3526 23.9902 23.4868C23.9967 23.6196 23.9477 23.7383 23.843 23.843C23.7383 23.9477 23.6225 24 23.4956 24C23.3687 24 23.2529 23.9477 23.1482 23.843L18 18.6948Z" />
</svg>