<svg width="20" height="20" viewBox="0 0 20 20" fill="none" xmlns="http://www.w3.org/2000/svg">
<path d="M17.5 10C17.5 14.1421 14.1421 17.5 10 17.5V18.5C14.6944 18.5 18.5 14.6944 18.5 10H17.5ZM10 17.5C5.85786 17.5 2.5 14.1421 2.5 10H1.5C1.5 14.6944 5.30558 18.5 10 18.5V17.5ZM2.5 10C2.5 5.85786 5.85786 2.5 10 2.5V1.5C5.30558 1.5 1.5 5.30558 1.5 10H2.5ZM10 2.5C14.1421 2.5 17.5 5.85786 17.5 10H18.5C18.5 5.30558 14.6944 1.5 10 1.5V2.5ZM9.94444 14C9.94444 13.9693 9.96932 13.9444 10 13.9444V14.9444C10.5216 14.9444 10.9444 14.5216 10.9444 14H9.94444ZM10 13.9444C10.0307 13.9444 10.0556 13.9693 10.0556 14H9.05556C9.05556 14.5216 9.4784 14.9444 10 14.9444V13.9444ZM10.0556 14C10.0556 14.0307 10.0307 14.0556 10 14.0556V13.0556C9.4784 13.0556 9.05556 13.4784 9.05556 14H10.0556ZM10 14.0556C9.96932 14.0556 9.94444 14.0307 9.94444 14H10.9444C10.9444 13.4784 10.5216 13.0556 10 13.0556V14.0556ZM10.5 11.7778V5.55556H9.5V11.7778H10.5Z" fill="#E90206"/>
</svg>
