<svg width="24" height="25" viewBox="0 0 24 25" fill="none" xmlns="http://www.w3.org/2000/svg">
<path d="M21.4194 3.08928C21.2343 2.90207 21.0138 2.75355 20.7708 2.65238C20.5278 2.55122 20.267 2.49942 20.0038 2.5H14.516C14.156 2.50068 13.8108 2.64328 13.5553 2.89687L2.58458 13.8654C2.21024 14.2405 2 14.7488 2 15.2787C2 15.8087 2.21024 16.317 2.58458 16.6921L7.80767 21.9152C8.18288 22.2897 8.69135 22.5 9.22147 22.5C9.7516 22.5 10.2601 22.2897 10.6353 21.9152L21.6015 10.9511C21.8556 10.696 21.9987 10.3509 21.9997 9.99089V4.49996C22.0014 4.23809 21.9509 3.97851 21.8513 3.73633C21.7516 3.49414 21.6048 3.27419 21.4194 3.08928ZM17.7141 8.21415C17.4316 8.21415 17.1554 8.13037 16.9205 7.9734C16.6855 7.81643 16.5025 7.59332 16.3943 7.33229C16.2862 7.07126 16.2579 6.78403 16.313 6.50692C16.3682 6.22981 16.5042 5.97527 16.704 5.77549C16.9038 5.5757 17.1583 5.43965 17.4354 5.38453C17.7125 5.32941 17.9998 5.3577 18.2608 5.46582C18.5218 5.57394 18.7449 5.75704 18.9019 5.99196C19.0589 6.22688 19.1427 6.50308 19.1427 6.78561C19.1427 7.16449 18.9922 7.52784 18.7243 7.79574C18.4563 8.06364 18.093 8.21415 17.7141 8.21415Z" fill="#F2A83B"/>
</svg>
