<svg width="28" height="28" viewBox="0 0 28 28" fill="none" xmlns="http://www.w3.org/2000/svg">
    <path
        d="M15.3707 0.666504C16.8707 0.670504 17.632 0.678504 18.2893 0.697171L18.548 0.706504C18.8467 0.717171 19.1413 0.730504 19.4973 0.746504C20.916 0.813171 21.884 1.03717 22.7333 1.3665C23.6133 1.70517 24.3547 2.16384 25.096 2.90384C25.7742 3.57015 26.2989 4.37647 26.6333 5.2665C26.9627 6.11584 27.1867 7.08384 27.2533 8.50384C27.2693 8.8585 27.2827 9.15317 27.2933 9.45317L27.3013 9.71184C27.3213 10.3678 27.3293 11.1292 27.332 12.6292L27.3333 13.6238V15.3705C27.3366 16.343 27.3263 17.3156 27.3027 18.2878L27.2947 18.5465C27.284 18.8465 27.2707 19.1412 27.2547 19.4958C27.188 20.9158 26.9613 21.8825 26.6333 22.7332C26.2989 23.6232 25.7742 24.4295 25.096 25.0958C24.4297 25.7741 23.6234 26.2987 22.7333 26.6332C21.884 26.9625 20.916 27.1865 19.4973 27.2532L18.548 27.2932L18.2893 27.3012C17.632 27.3198 16.8707 27.3292 15.3707 27.3318L14.376 27.3332H12.6307C11.6577 27.3366 10.6847 27.3264 9.71199 27.3025L9.45332 27.2945C9.1368 27.2825 8.82035 27.2687 8.50399 27.2532C7.08532 27.1865 6.11732 26.9625 5.26665 26.6332C4.37709 26.2986 3.57124 25.7739 2.90532 25.0958C2.22658 24.4297 1.70146 23.6233 1.36665 22.7332C1.03732 21.8838 0.813319 20.9158 0.746652 19.4958L0.706652 18.5465L0.699985 18.2878C0.675407 17.3156 0.664294 16.3431 0.666652 15.3705V12.6292C0.662961 11.6566 0.67274 10.6841 0.695985 9.71184L0.705319 9.45317C0.715985 9.15317 0.729319 8.8585 0.745319 8.50384C0.811985 7.08384 1.03599 6.11717 1.36532 5.2665C1.70091 4.3761 2.22695 3.56975 2.90665 2.90384C3.57219 2.2259 4.37757 1.70127 5.26665 1.3665C6.11732 1.03717 7.08399 0.813171 8.50399 0.746504C8.85865 0.730504 9.15465 0.717171 9.45332 0.706504L9.71199 0.698504C10.6842 0.674814 11.6568 0.664591 12.6293 0.667837L15.3707 0.666504ZM14 7.33317C12.2319 7.33317 10.5362 8.03555 9.28594 9.28579C8.0357 10.536 7.33332 12.2317 7.33332 13.9998C7.33332 15.7679 8.0357 17.4636 9.28594 18.7139C10.5362 19.9641 12.2319 20.6665 14 20.6665C15.7681 20.6665 17.4638 19.9641 18.714 18.7139C19.9643 17.4636 20.6667 15.7679 20.6667 13.9998C20.6667 12.2317 19.9643 10.536 18.714 9.28579C17.4638 8.03555 15.7681 7.33317 14 7.33317ZM14 9.99984C14.5253 9.99975 15.0454 10.1031 15.5308 10.3041C16.0161 10.505 16.4571 10.7996 16.8286 11.1709C17.2001 11.5423 17.4948 11.9832 17.6959 12.4685C17.897 12.9538 18.0006 13.4739 18.0007 13.9992C18.0007 14.5245 17.8974 15.0446 17.6964 15.53C17.4955 16.0153 17.2009 16.4563 16.8296 16.8278C16.4582 17.1993 16.0173 17.494 15.532 17.6951C15.0467 17.8962 14.5266 17.9998 14.0013 17.9998C12.9405 17.9998 11.923 17.5784 11.1729 16.8283C10.4227 16.0781 10.0013 15.0607 10.0013 13.9998C10.0013 12.939 10.4227 11.9216 11.1729 11.1714C11.923 10.4213 12.9405 9.99984 14.0013 9.99984M21.0013 5.33317C20.5593 5.33317 20.1354 5.50877 19.8228 5.82133C19.5102 6.13389 19.3347 6.55781 19.3347 6.99984C19.3347 7.44186 19.5102 7.86579 19.8228 8.17835C20.1354 8.49091 20.5593 8.6665 21.0013 8.6665C21.4433 8.6665 21.8673 8.49091 22.1798 8.17835C22.4924 7.86579 22.668 7.44186 22.668 6.99984C22.668 6.55781 22.4924 6.13389 22.1798 5.82133C21.8673 5.50877 21.4433 5.33317 21.0013 5.33317Z" />
</svg>