<svg width="27" height="30" viewBox="0 0 27 30" fill="none" xmlns="http://www.w3.org/2000/svg">
    <path fill-rule="evenodd" clip-rule="evenodd"
        d="M13.5 0.666504C6.13596 0.666504 0.166626 6.63584 0.166626 13.9998C0.166626 16.5198 0.866626 18.8798 2.08396 20.8905L0.894626 24.9332C0.826339 25.1653 0.821845 25.4115 0.881618 25.6459C0.941391 25.8804 1.06322 26.0944 1.23431 26.2655C1.40539 26.4366 1.6194 26.5584 1.85385 26.6182C2.0883 26.678 2.33452 26.6735 2.56663 26.6052L6.60929 25.4158C8.68761 26.6731 11.0709 27.3363 13.5 27.3332C20.864 27.3332 26.8333 21.3638 26.8333 13.9998C26.8333 6.63584 20.864 0.666504 13.5 0.666504ZM10.484 17.0172C13.1813 19.7132 15.756 20.0692 16.6653 20.1025C18.048 20.1532 19.3946 19.0972 19.9186 17.8718C19.9842 17.7193 20.0079 17.552 19.9873 17.3872C19.9667 17.2225 19.9025 17.0662 19.8013 16.9345C19.0706 16.0012 18.0826 15.3305 17.1173 14.6638C16.9158 14.5241 16.6681 14.468 16.4261 14.5073C16.1841 14.5466 15.9668 14.6783 15.82 14.8745L15.02 16.0945C14.9777 16.1598 14.9121 16.2067 14.8366 16.2255C14.7611 16.2443 14.6813 16.2337 14.6133 16.1958C14.0706 15.8852 13.28 15.3572 12.712 14.7892C12.144 14.2212 11.648 13.4665 11.3693 12.9585C11.3356 12.8938 11.3261 12.8192 11.3424 12.748C11.3588 12.6769 11.4 12.614 11.4586 12.5705L12.6906 11.6558C12.867 11.5033 12.9808 11.291 13.0103 11.0598C13.0398 10.8285 12.983 10.5945 12.8506 10.4025C12.2533 9.52784 11.5573 8.41584 10.548 7.6785C10.4174 7.58471 10.2649 7.52623 10.1051 7.50871C9.94531 7.49119 9.78372 7.51523 9.63596 7.5785C8.40929 8.10384 7.34796 9.4505 7.39863 10.8358C7.43196 11.7452 7.78796 14.3198 10.484 17.0172Z" />
</svg>