<svg width="48" height="48" viewBox="0 0 48 48" fill="none" xmlns="http://www.w3.org/2000/svg">
<g clip-path="url(#clip0_249_2185)">
<g filter="url(#filter0_d_249_2185)">
<path d="M1.02442 23.7914C1.0233 27.8377 2.0853 31.7886 4.10467 35.271L0.831299 47.1693L13.0623 43.9767C16.4452 45.81 20.2356 46.7707 24.0873 46.771H24.0974C36.8127 46.771 47.1633 36.4703 47.1687 23.8095C47.1712 17.6744 44.7734 11.9054 40.417 7.5651C36.0614 3.22517 30.2686 0.833824 24.0965 0.831024C11.3797 0.831024 1.02986 11.1311 1.02461 23.7914" fill="url(#paint0_linear_249_2185)"/>
<path d="M0.200625 23.7839C0.199313 27.9758 1.29937 32.0681 3.39075 35.6752L0 48L12.6696 44.6929C16.1604 46.5877 20.0908 47.5867 24.0902 47.5882H24.1005C37.272 47.5882 47.9944 36.917 48 23.803C48.0023 17.4475 45.5182 11.471 41.0062 6.97525C36.4937 2.48001 30.4937 0.00261329 24.1005 0C10.9267 0 0.205875 10.6697 0.200625 23.7839ZM7.74581 35.0539L7.27275 34.3064C5.28412 31.1585 4.2345 27.5208 4.236 23.7854C4.24012 12.8852 13.1509 4.017 24.108 4.017C29.4143 4.01924 34.401 6.07852 38.1517 9.81478C41.9023 13.5514 43.9661 18.5185 43.9648 23.8015C43.9599 34.7017 35.049 43.571 24.1005 43.571H24.0926C20.5277 43.5692 17.0314 42.6161 13.9823 40.8149L13.2566 40.3866L5.73825 42.3489L7.74581 35.0539Z" fill="white"/>
<path d="M18.127 13.8408C17.6797 12.8509 17.2089 12.8309 16.7834 12.8135C16.435 12.7986 16.0368 12.7997 15.6389 12.7997C15.2407 12.7997 14.5936 12.9489 14.0467 13.5434C13.4992 14.1385 11.9564 15.5765 11.9564 18.5014C11.9564 21.4262 14.0964 24.253 14.3947 24.6501C14.6934 25.0464 18.5259 31.2406 24.5956 33.6236C29.6401 35.6039 30.6667 35.21 31.7615 35.1107C32.8565 35.0118 35.2947 33.673 35.7922 32.2848C36.29 30.8968 36.29 29.707 36.1407 29.4583C35.9915 29.2106 35.5932 29.0619 34.996 28.7647C34.3989 28.4675 31.4628 27.0291 30.9155 26.8307C30.368 26.6324 29.9699 26.5335 29.5717 27.1288C29.1734 27.7231 28.0299 29.0619 27.6813 29.4583C27.3331 29.8558 26.9845 29.9052 26.3875 29.6079C25.79 29.3096 23.8668 28.6826 21.5851 26.6575C19.8099 25.0816 18.6114 23.1357 18.263 22.5404C17.9146 21.9461 18.2257 21.6239 18.5251 21.3276C18.7934 21.0613 19.1225 20.6334 19.4214 20.2864C19.7191 19.9392 19.8185 19.6915 20.0176 19.2951C20.2169 18.8982 20.1172 18.551 19.9681 18.2537C19.8185 17.9563 18.658 15.0162 18.127 13.8408Z" fill="white"/>
</g>
</g>
<defs>
<filter id="filter0_d_249_2185" x="-2" y="0" width="52" height="52" filterUnits="userSpaceOnUse" color-interpolation-filters="sRGB">
<feFlood flood-opacity="0" result="BackgroundImageFix"/>
<feColorMatrix in="SourceAlpha" type="matrix" values="0 0 0 0 0 0 0 0 0 0 0 0 0 0 0 0 0 0 127 0" result="hardAlpha"/>
<feOffset dy="2"/>
<feGaussianBlur stdDeviation="1"/>
<feComposite in2="hardAlpha" operator="out"/>
<feColorMatrix type="matrix" values="0 0 0 0 0 0 0 0 0 0 0 0 0 0 0 0 0 0 0.15 0"/>
<feBlend mode="normal" in2="BackgroundImageFix" result="effect1_dropShadow_249_2185"/>
<feBlend mode="normal" in="SourceGraphic" in2="effect1_dropShadow_249_2185" result="shape"/>
</filter>
<linearGradient id="paint0_linear_249_2185" x1="2317.7" y1="4634.66" x2="2317.7" y2="0.831024" gradientUnits="userSpaceOnUse">
<stop stop-color="#1FAF38"/>
<stop offset="1" stop-color="#60D669"/>
</linearGradient>
<clipPath id="clip0_249_2185">
<rect width="48" height="48" fill="white"/>
</clipPath>
</defs>
</svg>
