<svg width="64" height="64" viewBox="0 0 64 64" fill="none" xmlns="http://www.w3.org/2000/svg">
<path d="M61.6542 31.9922C71.2314 41.7634 49.5568 67.1159 31.4113 63.6828C10.4934 55.496 -4.37639 53.1192 1.16832 31.9922C-4.88044 10.601 14.7779 -5.24436 31.4113 1.62193C55.3539 0.037504 57.3701 16.675 61.6542 31.9922Z" fill="#F2A83B"/>
<path d="M46.7766 12.9544C46.6685 1.66342 20.479 -0.482849 12.2857 12.1096C5.19574 29.0938 -1.76165 39.1582 13.0919 48.2514C21.6361 64.2642 41.4081 62.0392 46.8475 48.3257C61.0635 35.2784 52.9208 24.3929 46.7766 12.9544Z" fill="#F8C984"/>
<path d="M39.6564 13.6589C37.368 5.05564 16.9396 9.03392 13.1399 20.4123C11.0412 34.9094 7.69187 44.0912 20.8167 47.8523C30.4729 58.2534 45.1443 52.312 46.6209 40.6679C54.9331 27.65 46.5854 21.08 39.6564 13.6589Z" fill="#F2A83B"/>
<path d="M28.8981 7.02545C24.4401 4.80018 16.663 6.3104 16.7962 15.211L16.7962 15.2137C16.7965 16.5318 16.7966 16.7961 17.3005 17.588C17.3005 17.588 18.8127 19.4366 20.8289 19.9658C22.8451 20.4949 24.6136 22.6067 24.6136 22.6067C25.186 24.0433 25.1467 24.5937 24.6136 25.2475C20.0966 27.7719 19.2543 28.8917 18.313 30.7934C16.9167 35.7527 17.1779 37.991 18.313 41.621C19.2693 42.5405 20.2527 42.1913 23.1015 39.7724C24.6542 38.7543 26.2253 39.7724 26.6298 40.8288C27.0344 41.8851 21.9863 51.1324 23.8576 50.8641C31.4146 54.4409 35.4841 52.999 42.7594 50.8641C43.0946 49.9767 43.2189 49.3862 40.9952 44.7901C40.3559 43.4687 42.2372 39.8489 43.7675 37.3956C44.5218 36.0742 43.4827 33.2866 42.0033 30.7934C41.4975 29.941 42.7612 27.8884 43.7675 26.568C44.7739 25.2475 44.4882 23.1107 40.9952 22.6067L32.6784 23.3989C32.6784 23.3989 29.6559 23.9281 29.9062 19.9658C30.1564 16.0035 31.5958 15.62 32.6784 12.8354C32.6784 12.8354 33.356 9.25072 28.8981 7.02545Z" fill="#D9D9D9" stroke="#4F79B8" stroke-width="1.5"/>
<path d="M26.3773 10.9857C22.0283 13.1201 20.6502 14.6522 21.3368 18.3802C21.802 20.1829 23.0233 21.1502 25.3692 22.8697C27.7171 23.2799 28.5495 22.6397 29.6537 20.757C30.1562 19.4798 30.3264 18.4523 30.4097 16.0034L29.6537 14.9471M24.8633 9.13712C26.6893 11.8589 28.046 12.7247 30.4097 12.8344" stroke="#4F79B8" stroke-width="1.5"/>
<path d="M32.1695 48.7501L32.6736 47.4297" stroke="#4F79B8" stroke-width="1.5" stroke-linecap="round"/>
<path d="M33.1796 35.8101C38.2201 38.451 41.3639 35.4519 39.7322 31.3206L38.9761 30.0001C38.9193 29.379 39.1447 29.1081 39.7322 28.6797M22.5945 32.3769C23.3302 32.7195 23.4953 32.7159 23.4709 33.4333C22.4632 40.8278 28.0074 39.7714 31.0317 35.2819" stroke="#4F79B8" stroke-width="1.5" stroke-linejoin="round"/>
</svg>
