<svg width="212" height="69" viewBox="0 0 212 69" fill="none" xmlns="http://www.w3.org/2000/svg">
<path d="M61.6542 35.4922C71.2314 45.2634 49.5568 70.6159 31.4113 67.1828C10.4934 58.996 -4.37639 56.6192 1.16832 35.4922C-4.88044 14.101 14.7779 -1.74436 31.4113 5.12193C55.3539 3.5375 57.3701 20.175 61.6542 35.4922Z" fill="#F2A83B"/>
<path d="M46.7766 16.4544C46.6685 5.16342 20.479 3.01715 12.2857 15.6096C5.19574 32.5938 -1.76165 42.6582 13.0919 51.7514C21.6361 67.7642 41.4082 65.5392 46.8475 51.8257C61.0635 38.7784 52.9208 27.8929 46.7766 16.4544Z" fill="#F8C984"/>
<path d="M39.6564 17.1589C37.368 8.55564 16.9396 12.5339 13.1399 23.9123C11.0412 38.4094 7.69187 47.5912 20.8167 51.3523C30.4729 61.7534 45.1443 55.812 46.6209 44.1679C54.9331 31.15 46.5854 24.58 39.6564 17.1589Z" fill="#F2A83B"/>
<path d="M28.8985 10.5254C24.4405 8.30018 16.6634 9.8104 16.7966 18.711L16.7966 18.7137C16.7969 20.0318 16.7969 20.2961 17.3009 21.088C17.3009 21.088 18.8131 22.9366 20.8293 23.4658C22.8454 23.9949 24.614 26.1067 24.614 26.1067C25.1864 27.5433 25.1471 28.0937 24.614 28.7475C20.097 31.2719 19.2547 32.3917 18.3134 34.2934C16.9171 39.2527 17.1783 41.491 18.3134 45.121C19.2697 46.0405 20.2531 45.6913 23.1019 43.2724C24.6546 42.2543 26.2257 43.2724 26.6302 44.3288C27.0348 45.3851 21.9867 54.6324 23.858 54.3641C31.415 57.9409 35.4845 56.499 42.7598 54.3641C43.095 53.4767 43.2193 52.8862 40.9956 48.2901C40.3563 46.9687 42.2376 43.3489 43.7679 40.8956C44.5222 39.5742 43.4831 36.7866 42.0037 34.2934C41.4979 33.441 42.7616 31.3884 43.7679 30.068C44.7743 28.7475 44.4886 26.6107 40.9956 26.1067L32.6788 26.8989C32.6788 26.8989 29.6563 27.4281 29.9065 23.4658C30.1568 19.5035 31.5962 19.12 32.6788 16.3354C32.6788 16.3354 33.3564 12.7507 28.8985 10.5254Z" fill="#D9D9D9" stroke="#4F79B8" stroke-width="1.5"/>
<path d="M26.3777 14.4858C22.0287 16.6202 20.6506 18.1523 21.3372 21.8803C21.8024 23.683 23.0237 24.6503 25.3696 26.3698C27.7175 26.78 28.5499 26.1398 29.654 24.2571C30.1566 22.9799 30.3268 21.9524 30.4101 19.5035L29.654 18.4472M24.8637 12.6372C26.6897 15.359 28.0464 16.2248 30.4101 16.3344" stroke="#4F79B8" stroke-width="1.5"/>
<path d="M32.1699 52.2501L32.674 50.9297" stroke="#4F79B8" stroke-width="1.5" stroke-linecap="round"/>
<path d="M33.1798 39.3101C38.2203 41.951 41.3641 38.9519 39.7324 34.8206L38.9763 33.5001C38.9195 32.879 39.1449 32.6081 39.7324 32.1797M22.5947 35.8769C23.3304 36.2195 23.4955 36.2159 23.4711 36.9333C22.4634 44.3278 28.0076 43.2714 31.0319 38.7819" stroke="#4F79B8" stroke-width="1.5" stroke-linejoin="round"/>
<path d="M78.16 8.88C76.8267 8.88 75.8 9.24 75.08 9.96C74.36 10.68 73.8133 11.8933 73.44 13.6C73.44 13.6533 73.36 13.68 73.2 13.68C73.0667 13.68 73 13.6533 73 13.6C73.1067 12.7733 73.2133 11.7067 73.32 10.4C73.4267 9.09333 73.48 8.09333 73.48 7.4C73.48 7.26667 73.5467 7.2 73.68 7.2C73.84 7.2 73.92 7.26667 73.92 7.4C73.92 7.74667 74.12 7.97333 74.52 8.08C74.92 8.16 75.4267 8.2 76.04 8.2C78.3333 8.25333 80.3467 8.28 82.08 8.28L85.56 8.24C86.0133 8.21333 86.6267 8.2 87.4 8.2C88.4133 8.2 89.1467 8.14667 89.6 8.04C90.08 7.90667 90.3867 7.64 90.52 7.24C90.5733 7.16 90.6667 7.12 90.8 7.12C90.9333 7.12 91 7.16 91 7.24C90.8133 10.68 90.72 12.8 90.72 13.6C90.72 13.6533 90.64 13.68 90.48 13.68C90.3467 13.68 90.28 13.6533 90.28 13.6C90.1733 11.9733 89.7733 10.7867 89.08 10.04C88.4133 9.26667 87.3867 8.88 86 8.88C85.0133 8.88 84.3467 9.06667 84 9.44C83.68 9.78667 83.52 10.48 83.52 11.52V23.76C83.52 24.5867 83.6 25.1867 83.76 25.56C83.92 25.9333 84.2267 26.1867 84.68 26.32C85.1333 26.4533 85.8533 26.52 86.84 26.52C86.8933 26.52 86.92 26.6 86.92 26.76C86.92 26.92 86.8933 27 86.84 27C85.96 27 85.28 26.9867 84.8 26.96L82 26.92L79.24 26.96C78.7333 26.9867 78.04 27 77.16 27C77.1067 27 77.08 26.92 77.08 26.76C77.08 26.6 77.1067 26.52 77.16 26.52C78.1467 26.52 78.8667 26.4533 79.32 26.32C79.7733 26.1867 80.08 25.9333 80.24 25.56C80.4267 25.16 80.52 24.56 80.52 23.76V11.44C80.52 10.6933 80.4667 10.1467 80.36 9.8C80.2533 9.45333 80.04 9.21333 79.72 9.08C79.4 8.94667 78.88 8.88 78.16 8.88ZM104.282 16.6C106.442 16.6533 108.109 17.08 109.282 17.88C110.455 18.68 111.042 19.8267 111.042 21.32C111.042 22.4667 110.709 23.48 110.042 24.36C109.402 25.24 108.509 25.9333 107.362 26.44C106.215 26.92 104.909 27.16 103.442 27.16C102.722 27.16 101.895 27.12 100.962 27.04C100.589 27.0133 100.135 26.9867 99.6019 26.96C99.0952 26.9333 98.5485 26.92 97.9619 26.92L95.5219 26.96C95.0685 26.9867 94.4419 27 93.6419 27C93.5885 27 93.5619 26.92 93.5619 26.76C93.5619 26.6 93.5885 26.52 93.6419 26.52C94.5219 26.52 95.1619 26.4533 95.5619 26.32C95.9619 26.1867 96.2285 25.9333 96.3619 25.56C96.4952 25.16 96.5619 24.56 96.5619 23.76V11.52C96.5619 10.72 96.4952 10.1333 96.3619 9.76C96.2285 9.38667 95.9619 9.13333 95.5619 9C95.1619 8.84 94.5485 8.76 93.7219 8.76C93.6419 8.76 93.6019 8.68 93.6019 8.52C93.6019 8.36 93.6419 8.28 93.7219 8.28L95.5219 8.32C96.5352 8.37333 97.3485 8.4 97.9619 8.4C98.6819 8.4 99.4419 8.36 100.242 8.28C100.509 8.25333 100.895 8.22667 101.402 8.2C101.935 8.17333 102.402 8.16 102.802 8.16C104.722 8.16 106.229 8.50667 107.322 9.2C108.415 9.89333 108.962 10.8667 108.962 12.12C108.962 13.32 108.455 14.36 107.442 15.24C106.429 16.12 105.055 16.7067 103.322 17L104.282 16.6ZM101.802 8.68C101.162 8.68 100.682 8.76 100.362 8.92C100.042 9.05333 99.8152 9.33333 99.6819 9.76C99.5485 10.16 99.4819 10.7733 99.4819 11.6V16.76L98.2419 16.52C98.7752 16.6 99.4952 16.64 100.402 16.64C101.815 16.64 102.895 16.5733 103.642 16.44C104.389 16.28 104.962 15.9467 105.362 15.44C105.762 14.9067 105.962 14.08 105.962 12.96C105.962 10.1067 104.575 8.68 101.802 8.68ZM102.762 26.52C106.175 26.52 107.882 25.0933 107.882 22.24C107.882 20.72 107.349 19.5333 106.282 18.68C105.215 17.8 103.562 17.36 101.322 17.36C99.9619 17.36 98.9352 17.4267 98.2419 17.56L99.4819 17.2V23.76C99.4819 24.7733 99.6952 25.4933 100.122 25.92C100.575 26.32 101.455 26.52 102.762 26.52ZM120.396 23.76C120.396 24.56 120.463 25.16 120.596 25.56C120.73 25.9333 120.983 26.1867 121.356 26.32C121.756 26.4533 122.383 26.52 123.236 26.52C123.316 26.52 123.356 26.6 123.356 26.76C123.356 26.92 123.316 27 123.236 27C122.463 27 121.863 26.9867 121.436 26.96L118.876 26.92L116.396 26.96C115.943 26.9867 115.316 27 114.516 27C114.463 27 114.436 26.92 114.436 26.76C114.436 26.6 114.463 26.52 114.516 26.52C115.37 26.52 115.996 26.4533 116.396 26.32C116.796 26.1867 117.063 25.9333 117.196 25.56C117.356 25.16 117.436 24.56 117.436 23.76V11.52C117.436 10.72 117.356 10.1333 117.196 9.76C117.063 9.38667 116.796 9.13333 116.396 9C115.996 8.84 115.37 8.76 114.516 8.76C114.463 8.76 114.436 8.68 114.436 8.52C114.436 8.36 114.463 8.28 114.516 8.28L116.396 8.32C117.41 8.37333 118.236 8.4 118.876 8.4C119.543 8.4 120.41 8.37333 121.476 8.32L123.236 8.28C123.316 8.28 123.356 8.36 123.356 8.52C123.356 8.68 123.316 8.76 123.236 8.76C122.41 8.76 121.796 8.84 121.396 9C121.023 9.16 120.756 9.44 120.596 9.84C120.463 10.2133 120.396 10.8 120.396 11.6V23.76ZM129.992 27.32C129.806 27.32 129.619 27.28 129.432 27.2C129.272 27.1467 129.192 27.08 129.192 27V11.52C129.192 10.72 129.126 10.1333 128.992 9.76C128.859 9.38667 128.592 9.13333 128.192 9C127.792 8.84 127.179 8.76 126.352 8.76C126.272 8.76 126.232 8.68 126.232 8.52C126.232 8.36 126.272 8.28 126.352 8.28L128.152 8.32C129.166 8.37333 129.992 8.4 130.632 8.4C131.299 8.4 132.139 8.37333 133.152 8.32L134.952 8.28C135.032 8.28 135.072 8.36 135.072 8.52C135.072 8.68 135.032 8.76 134.952 8.76C134.126 8.76 133.512 8.84 133.112 9C132.712 9.13333 132.446 9.38667 132.312 9.76C132.179 10.1333 132.112 10.72 132.112 11.52V24.48L131.192 24.68L144.512 8.08C144.646 8 144.779 7.96 144.912 7.96C145.099 7.96 145.272 7.98667 145.432 8.04C145.619 8.09333 145.712 8.17333 145.712 8.28V23.76C145.712 24.56 145.779 25.16 145.912 25.56C146.072 25.9333 146.352 26.1867 146.752 26.32C147.152 26.4533 147.779 26.52 148.632 26.52C148.686 26.52 148.712 26.6 148.712 26.76C148.712 26.92 148.686 27 148.632 27C147.832 27 147.206 26.9867 146.752 26.96L144.312 26.92L141.752 26.96C141.326 26.9867 140.726 27 139.952 27C139.899 27 139.872 26.92 139.872 26.76C139.872 26.6 139.899 26.52 139.952 26.52C140.806 26.52 141.419 26.4533 141.792 26.32C142.192 26.1867 142.459 25.9333 142.592 25.56C142.752 25.16 142.832 24.56 142.832 23.76V10.92L143.712 10.6L130.392 27.2C130.312 27.28 130.179 27.32 129.992 27.32ZM137.752 4.52C138.552 4.52 139.112 4.30667 139.432 3.88C139.779 3.45333 140.032 2.86667 140.192 2.12C140.352 1.42667 140.539 0.92 140.752 0.599999C140.966 0.253332 141.339 0.0799985 141.872 0.0799985C142.299 0.0799985 142.619 0.199999 142.832 0.439999C143.072 0.679999 143.192 0.999999 143.192 1.4C143.192 2.04 142.939 2.65333 142.432 3.24C141.926 3.8 141.246 4.25333 140.392 4.6C139.566 4.92 138.699 5.08 137.792 5.08C136.859 5.08 135.966 4.90667 135.112 4.56C134.286 4.21333 133.619 3.76 133.112 3.2C132.606 2.61333 132.352 2 132.352 1.36C132.352 0.959999 132.459 0.653332 132.672 0.439999C132.912 0.199999 133.246 0.0799985 133.672 0.0799985C134.259 0.0799985 134.646 0.253332 134.832 0.599999C135.046 0.92 135.232 1.45333 135.392 2.2C135.552 2.94667 135.779 3.52 136.072 3.92C136.366 4.32 136.926 4.52 137.752 4.52ZM161.218 27C161.165 27 161.138 26.92 161.138 26.76C161.138 26.6 161.165 26.52 161.218 26.52C162.072 26.52 162.685 26.4533 163.058 26.32C163.458 26.1867 163.725 25.9333 163.858 25.56C164.018 25.16 164.098 24.56 164.098 23.76V11.52C164.098 10.72 164.018 10.1333 163.858 9.76C163.725 9.38667 163.458 9.13333 163.058 9C162.658 8.84 162.045 8.76 161.218 8.76C161.165 8.76 161.138 8.68 161.138 8.52C161.138 8.36 161.165 8.28 161.218 8.28H175.778C176.018 8.28 176.138 8.38667 176.138 8.6C176.138 10.12 176.098 11.8 176.018 13.64C176.018 13.72 175.938 13.76 175.778 13.76C175.645 13.76 175.565 13.72 175.538 13.64C175.245 12.1733 174.698 11.0533 173.898 10.28C173.125 9.48 172.138 9.08 170.938 9.08H169.778C168.952 9.08 168.352 9.14667 167.978 9.28C167.605 9.38667 167.352 9.61333 167.218 9.96C167.085 10.3067 167.018 10.84 167.018 11.56V23.6C167.018 24.4533 167.112 25.08 167.298 25.48C167.485 25.8533 167.832 26.12 168.338 26.28C168.872 26.44 169.698 26.52 170.818 26.52C170.898 26.52 170.938 26.6 170.938 26.76C170.938 26.92 170.898 27 170.818 27C169.858 27 169.112 26.9867 168.578 26.96L165.538 26.92L163.218 26.96C162.765 26.9867 162.098 27 161.218 27ZM184.926 23.76C184.926 24.56 184.993 25.16 185.126 25.56C185.259 25.9333 185.513 26.1867 185.886 26.32C186.286 26.4533 186.913 26.52 187.766 26.52C187.846 26.52 187.886 26.6 187.886 26.76C187.886 26.92 187.846 27 187.766 27C186.993 27 186.393 26.9867 185.966 26.96L183.406 26.92L180.926 26.96C180.473 26.9867 179.846 27 179.046 27C178.993 27 178.966 26.92 178.966 26.76C178.966 26.6 178.993 26.52 179.046 26.52C179.899 26.52 180.526 26.4533 180.926 26.32C181.326 26.1867 181.593 25.9333 181.726 25.56C181.886 25.16 181.966 24.56 181.966 23.76V11.52C181.966 10.72 181.886 10.1333 181.726 9.76C181.593 9.38667 181.326 9.13333 180.926 9C180.526 8.84 179.899 8.76 179.046 8.76C178.993 8.76 178.966 8.68 178.966 8.52C178.966 8.36 178.993 8.28 179.046 8.28L180.926 8.32C181.939 8.37333 182.766 8.4 183.406 8.4C184.073 8.4 184.939 8.37333 186.006 8.32L187.766 8.28C187.846 8.28 187.886 8.36 187.886 8.52C187.886 8.68 187.846 8.76 187.766 8.76C186.939 8.76 186.326 8.84 185.926 9C185.553 9.16 185.286 9.44 185.126 9.84C184.993 10.2133 184.926 10.8 184.926 11.6V23.76ZM190.762 33.08C190.762 31.24 190.695 29.5867 190.562 28.12C190.509 27.48 190.482 27.0533 190.482 26.84C190.482 26.52 190.495 26.3333 190.522 26.28C190.575 26.2 190.695 26.16 190.882 26.16H211.082C211.269 26.16 211.375 26.2133 211.402 26.32C211.455 26.4 211.482 26.5733 211.482 26.84C211.482 27.0533 211.455 27.48 211.402 28.12C211.269 29.6667 211.202 31.32 211.202 33.08C211.202 33.2133 211.122 33.28 210.962 33.28C210.829 33.28 210.762 33.2133 210.762 33.08C210.762 29.0267 209.175 27 206.002 27H195.682C192.722 27 191.242 29.0267 191.242 33.08C191.242 33.2133 191.162 33.28 191.002 33.28C190.842 33.28 190.762 33.2133 190.762 33.08ZM199.282 11.24L200.562 9.64L193.602 27H192.482L200.402 7.68C200.455 7.57333 200.535 7.52 200.642 7.52C200.749 7.52 200.815 7.57333 200.842 7.68L209.682 27H206.482L199.282 11.24Z" fill="#F2A83B"/>
<path d="M75.96 56C75.9067 56 75.88 55.92 75.88 55.76C75.88 55.6 75.9067 55.52 75.96 55.52C77.5867 55.52 79.0133 55.0667 80.24 54.16C81.4667 53.2267 82.48 51.9467 83.28 50.32L88.16 40.64C88.4 40.16 88.52 39.72 88.52 39.32C88.52 38.28 87.6267 37.76 85.84 37.76C85.76 37.76 85.72 37.68 85.72 37.52C85.72 37.36 85.76 37.28 85.84 37.28L87.08 37.32C87.7733 37.3733 88.44 37.4 89.08 37.4C89.5867 37.4 90.1867 37.3733 90.88 37.32L92.12 37.28C92.2 37.28 92.24 37.36 92.24 37.52C92.24 37.68 92.2 37.76 92.12 37.76C91.1067 37.76 90.0933 38.8 89.08 40.88L83.2 52.64L82.36 54.36C82.04 55.08 81.7867 55.5333 81.6 55.72C81.44 55.9067 81.1733 56 80.8 56H75.96ZM75.52 40.6C74.96 39.56 74.3867 38.8267 73.8 38.4C73.24 37.9733 72.6133 37.76 71.92 37.76C71.84 37.76 71.8 37.68 71.8 37.52C71.8 37.36 71.84 37.28 71.92 37.28L73.64 37.32C74.6 37.3733 75.36 37.4 75.92 37.4C76.6133 37.4 77.4133 37.3733 78.32 37.32L80 37.28C80.08 37.28 80.12 37.36 80.12 37.52C80.12 37.68 80.08 37.76 80 37.76C78.7467 37.76 78.12 38.12 78.12 38.84C78.12 39.24 78.2667 39.6933 78.56 40.2L84.08 50.12L82.28 52.84L75.52 40.6ZM108.865 52.6C108.865 53.4267 108.959 54.04 109.145 54.44C109.332 54.84 109.679 55.12 110.185 55.28C110.719 55.44 111.545 55.52 112.665 55.52C112.745 55.52 112.785 55.6 112.785 55.76C112.785 55.92 112.745 56 112.665 56C111.705 56 110.945 55.9867 110.385 55.96L107.425 55.92L104.945 55.96C104.492 55.9867 103.865 56 103.065 56C103.012 56 102.985 55.92 102.985 55.76C102.985 55.6 103.012 55.52 103.065 55.52C103.892 55.52 104.505 55.4533 104.905 55.32C105.305 55.1867 105.572 54.9333 105.705 54.56C105.865 54.16 105.945 53.56 105.945 52.76V40.52C105.945 39.72 105.865 39.1333 105.705 38.76C105.572 38.3867 105.305 38.1333 104.905 38C104.505 37.84 103.892 37.76 103.065 37.76C103.012 37.76 102.985 37.68 102.985 37.52C102.985 37.36 103.012 37.28 103.065 37.28L104.905 37.32C105.972 37.3733 106.799 37.4 107.385 37.4C108.079 37.4 108.839 37.36 109.665 37.28C109.959 37.2533 110.305 37.2267 110.705 37.2C111.132 37.1733 111.599 37.16 112.105 37.16C116.585 37.16 118.825 38.7467 118.825 41.92C118.825 43.2 118.492 44.2933 117.825 45.2C117.185 46.08 116.359 46.7467 115.345 47.2C114.332 47.6267 113.279 47.84 112.185 47.84C111.572 47.84 111.065 47.8 110.665 47.72C110.585 47.6667 110.545 47.5867 110.545 47.48C110.545 47.2933 110.612 47.2 110.745 47.2C110.932 47.2 111.105 47.2133 111.265 47.24C111.452 47.2667 111.639 47.28 111.825 47.28C112.892 47.28 113.772 46.9067 114.465 46.16C115.185 45.3867 115.545 44.2533 115.545 42.76C115.545 41.08 115.159 39.8267 114.385 39C113.612 38.1733 112.532 37.76 111.145 37.76C110.532 37.76 110.065 37.8267 109.745 37.96C109.452 38.0667 109.225 38.32 109.065 38.72C108.932 39.12 108.865 39.7467 108.865 40.6V52.6ZM125.539 56.32C125.352 56.32 125.166 56.28 124.979 56.2C124.819 56.1467 124.739 56.08 124.739 56V40.52C124.739 39.72 124.672 39.1333 124.539 38.76C124.406 38.3867 124.139 38.1333 123.739 38C123.339 37.84 122.726 37.76 121.899 37.76C121.819 37.76 121.779 37.68 121.779 37.52C121.779 37.36 121.819 37.28 121.899 37.28L123.699 37.32C124.712 37.3733 125.539 37.4 126.179 37.4C126.846 37.4 127.686 37.3733 128.699 37.32L130.499 37.28C130.579 37.28 130.619 37.36 130.619 37.52C130.619 37.68 130.579 37.76 130.499 37.76C129.672 37.76 129.059 37.84 128.659 38C128.259 38.1333 127.992 38.3867 127.859 38.76C127.726 39.1333 127.659 39.72 127.659 40.52V53.48L126.739 53.68L140.059 37.08C140.192 37 140.326 36.96 140.459 36.96C140.646 36.96 140.819 36.9867 140.979 37.04C141.166 37.0933 141.259 37.1733 141.259 37.28V52.76C141.259 53.56 141.326 54.16 141.459 54.56C141.619 54.9333 141.899 55.1867 142.299 55.32C142.699 55.4533 143.326 55.52 144.179 55.52C144.232 55.52 144.259 55.6 144.259 55.76C144.259 55.92 144.232 56 144.179 56C143.379 56 142.752 55.9867 142.299 55.96L139.859 55.92L137.299 55.96C136.872 55.9867 136.272 56 135.499 56C135.446 56 135.419 55.92 135.419 55.76C135.419 55.6 135.446 55.52 135.499 55.52C136.352 55.52 136.966 55.4533 137.339 55.32C137.739 55.1867 138.006 54.9333 138.139 54.56C138.299 54.16 138.379 53.56 138.379 52.76V39.92L139.259 39.6L125.939 56.2C125.859 56.28 125.726 56.32 125.539 56.32ZM150.11 38.16L150.91 38.28L150.55 51.44C150.524 52.9067 150.71 53.96 151.11 54.6C151.537 55.2133 152.257 55.52 153.27 55.52C153.35 55.52 153.39 55.6 153.39 55.76C153.39 55.92 153.35 56 153.27 56C152.684 56 152.23 55.9867 151.91 55.96L150.11 55.92L148.35 55.96C148.004 55.9867 147.51 56 146.87 56C146.817 56 146.79 55.92 146.79 55.76C146.79 55.6 146.817 55.52 146.87 55.52C147.857 55.52 148.564 55.2133 148.99 54.6C149.444 53.96 149.697 52.9067 149.75 51.44L150.11 38.16ZM171.99 55.52C172.044 55.52 172.07 55.6 172.07 55.76C172.07 55.92 172.044 56 171.99 56C171.244 56 170.657 55.9867 170.23 55.96L167.87 55.92L165.15 55.96C164.697 55.9867 164.07 56 163.27 56C163.217 56 163.19 55.92 163.19 55.76C163.19 55.6 163.217 55.52 163.27 55.52C164.177 55.52 164.844 55.4533 165.27 55.32C165.724 55.16 166.017 54.8933 166.15 54.52C166.31 54.1467 166.377 53.56 166.35 52.76L165.75 38.52L166.59 37.76L159.11 55.72C159.057 55.8267 158.964 55.88 158.83 55.88C158.67 55.88 158.564 55.8267 158.51 55.72L150.83 40.6C149.87 38.7067 148.63 37.76 147.11 37.76C147.057 37.76 147.03 37.68 147.03 37.52C147.03 37.36 147.057 37.28 147.11 37.28L149.67 37.32L151.75 37.28C152.097 37.28 152.377 37.4133 152.59 37.68C152.83 37.92 153.177 38.48 153.63 39.36L160.11 52.16L158.79 54.6L165.55 38.28C165.657 37.9867 165.83 37.7467 166.07 37.56C166.31 37.3733 166.55 37.28 166.79 37.28L168.99 37.32L171.79 37.28C171.844 37.28 171.87 37.36 171.87 37.52C171.87 37.68 171.844 37.76 171.79 37.76C170.67 37.76 169.87 37.9467 169.39 38.32C168.937 38.6667 168.737 39.3733 168.79 40.44L169.31 52.76C169.364 53.5867 169.457 54.1867 169.59 54.56C169.724 54.9333 169.964 55.1867 170.31 55.32C170.657 55.4533 171.217 55.52 171.99 55.52ZM180.971 52.76C180.971 53.56 181.038 54.16 181.171 54.56C181.305 54.9333 181.558 55.1867 181.931 55.32C182.331 55.4533 182.958 55.52 183.811 55.52C183.891 55.52 183.931 55.6 183.931 55.76C183.931 55.92 183.891 56 183.811 56C183.038 56 182.438 55.9867 182.011 55.96L179.451 55.92L176.971 55.96C176.518 55.9867 175.891 56 175.091 56C175.038 56 175.011 55.92 175.011 55.76C175.011 55.6 175.038 55.52 175.091 55.52C175.945 55.52 176.571 55.4533 176.971 55.32C177.371 55.1867 177.638 54.9333 177.771 54.56C177.931 54.16 178.011 53.56 178.011 52.76V40.52C178.011 39.72 177.931 39.1333 177.771 38.76C177.638 38.3867 177.371 38.1333 176.971 38C176.571 37.84 175.945 37.76 175.091 37.76C175.038 37.76 175.011 37.68 175.011 37.52C175.011 37.36 175.038 37.28 175.091 37.28L176.971 37.32C177.985 37.3733 178.811 37.4 179.451 37.4C180.118 37.4 180.985 37.3733 182.051 37.32L183.811 37.28C183.891 37.28 183.931 37.36 183.931 37.52C183.931 37.68 183.891 37.76 183.811 37.76C182.985 37.76 182.371 37.84 181.971 38C181.598 38.16 181.331 38.44 181.171 38.84C181.038 39.2133 180.971 39.8 180.971 40.6V52.76Z" fill="#F2A83B"/>
<path d="M193.182 47L192.206 47.2117C192.42 47.5794 192.471 53.9494 192.098 54.0361C189.79 54.3098 188.666 55.0494 192.584 54.9974C196.029 54.8729 195.409 54.2608 193.1 53.99C192.614 53.5395 192.988 49.0456 193.182 47Z" fill="#D9D9D9"/>
<path d="M194.318 40.1198L194.091 37.2617L192.727 37.05L191.25 37.2617L190.795 43.0837L194.318 40.1198Z" fill="#D9D9D9"/>
<path d="M190.682 45.6242C190.682 45.6242 190.795 43.2954 190.795 43.1896C190.795 43.0837 192.874 41.7725 194.318 40.2256L194.659 45.6242L193.182 47L192.273 47.212L190.682 45.6242Z" fill="#F2A83B"/>
<path d="M193.182 47L192.206 47.2117C192.42 47.5794 192.471 53.9494 192.098 54.0361M193.182 47C192.988 49.0456 192.614 53.5395 193.1 53.99M193.182 47L192.273 47.212L190.682 45.6242C190.682 45.6242 190.795 43.2954 190.795 43.1896C190.795 43.0837 192.874 41.7725 194.318 40.2256L194.659 45.6242L193.182 47ZM191.904 54.3026C192.398 54.6248 192.658 54.6529 193.083 54.3026M193.1 53.99C195.409 54.2608 196.029 54.8729 192.584 54.9974C188.666 55.0494 189.79 54.3098 192.098 54.0361M193.1 53.99C192.614 53.5395 192.881 49.3359 193.075 47.2903C193.218 46.9023 194.747 45.7527 194.787 45.5869L194.166 37.2259C193.521 36.8544 191.95 37.0204 191.179 37.1653L190.583 45.6273C190.568 45.7907 192.03 46.8817 192.244 47.2493C192.457 47.6169 192.471 53.9494 192.098 54.0361M191.975 38.876L191.434 45.3684L191.701 45.8279M190.758 43.0837C192.207 42.101 193.05 41.4845 194.377 40.0139M192.123 46.1318C193.095 46.1661 193.437 46 193.769 45.4488M194.091 37.2617L194.318 40.1198L190.795 43.0837L191.25 37.2617L192.727 37.05L194.091 37.2617Z" stroke="#5F5F5F" stroke-width="0.3"/>
<path d="M193 35.75L193.8 34M193.8 36L195 35.5" stroke="#F2A83B" stroke-width="0.3"/>
<path d="M193 36L192 34" stroke="#F2A83B" stroke-width="0.3" stroke-dasharray="1 1"/>
<rect x="76" y="66" width="45" height="3" fill="#29595C"/>
<rect x="121" y="66" width="45" height="3" fill="white"/>
<rect x="166" y="66" width="45" height="3" fill="#C66A6B"/>
</svg>
