<svg width="212" height="70" viewBox="0 0 212 70" fill="none" xmlns="http://www.w3.org/2000/svg">
<path d="M61.6542 35.9922C71.2314 45.7634 49.5568 71.1159 31.4113 67.6828C10.4934 59.496 -4.37639 57.1192 1.16832 35.9922C-4.88044 14.601 14.7779 -1.24436 31.4113 5.62193C55.3539 4.0375 57.3701 20.675 61.6542 35.9922Z" fill="#F2A83B"/>
<path d="M46.7766 16.9544C46.6685 5.66342 20.479 3.51715 12.2857 16.1096C5.19574 33.0938 -1.76165 43.1582 13.0919 52.2514C21.6361 68.2642 41.4081 66.0392 46.8475 52.3257C61.0635 39.2784 52.9208 28.3929 46.7766 16.9544Z" fill="#F8C984"/>
<path d="M39.6564 17.6589C37.368 9.05564 16.9396 13.0339 13.1399 24.4123C11.0412 38.9094 7.69187 48.0912 20.8167 51.8523C30.4729 62.2534 45.1443 56.312 46.6209 44.6679C54.9331 31.65 46.5854 25.08 39.6564 17.6589Z" fill="#F2A83B"/>
<path d="M28.8981 11.0254C24.4401 8.80018 16.663 10.3104 16.7962 19.211L16.7962 19.2137C16.7965 20.5318 16.7966 20.7961 17.3005 21.588C17.3005 21.588 18.8127 23.4366 20.8289 23.9658C22.8451 24.4949 24.6136 26.6067 24.6136 26.6067C25.186 28.0433 25.1467 28.5937 24.6136 29.2475C20.0966 31.7719 19.2543 32.8917 18.313 34.7934C16.9167 39.7527 17.1779 41.991 18.313 45.621C19.2693 46.5405 20.2527 46.1913 23.1015 43.7724C24.6542 42.7543 26.2253 43.7724 26.6298 44.8288C27.0344 45.8851 21.9863 55.1324 23.8576 54.8641C31.4146 58.4409 35.4841 56.999 42.7594 54.8641C43.0946 53.9767 43.2189 53.3862 40.9952 48.7901C40.3559 47.4687 42.2372 43.8489 43.7675 41.3956C44.5218 40.0742 43.4827 37.2866 42.0033 34.7934C41.4975 33.941 42.7612 31.8884 43.7675 30.568C44.7739 29.2475 44.4882 27.1107 40.9952 26.6067L32.6784 27.3989C32.6784 27.3989 29.6559 27.9281 29.9062 23.9658C30.1564 20.0035 31.5958 19.62 32.6784 16.8354C32.6784 16.8354 33.356 13.2507 28.8981 11.0254Z" fill="#D9D9D9" stroke="#4F79B8" stroke-width="1.5"/>
<path d="M26.3773 14.9857C22.0283 17.1201 20.6502 18.6522 21.3368 22.3802C21.802 24.1829 23.0233 25.1502 25.3692 26.8697C27.7171 27.2799 28.5495 26.6397 29.6537 24.757C30.1562 23.4798 30.3264 22.4523 30.4097 20.0034L29.6537 18.9471M24.8633 13.1371C26.6893 15.8589 28.046 16.7247 30.4097 16.8344" stroke="#4F79B8" stroke-width="1.5"/>
<path d="M32.1695 52.7501L32.6736 51.4297" stroke="#4F79B8" stroke-width="1.5" stroke-linecap="round"/>
<path d="M33.1796 39.8101C38.2201 42.451 41.3639 39.4519 39.7322 35.3206L38.9761 34.0001C38.9193 33.379 39.1447 33.1081 39.7322 32.6797M22.5945 36.3769C23.3302 36.7195 23.4953 36.7159 23.4709 37.4333C22.4632 44.8278 28.0074 43.7714 31.0317 39.2819" stroke="#4F79B8" stroke-width="1.5" stroke-linejoin="round"/>
<path d="M78.16 9.38C76.8267 9.38 75.8 9.74 75.08 10.46C74.36 11.18 73.8133 12.3933 73.44 14.1C73.44 14.1533 73.36 14.18 73.2 14.18C73.0667 14.18 73 14.1533 73 14.1C73.1067 13.2733 73.2133 12.2067 73.32 10.9C73.4267 9.59333 73.48 8.59333 73.48 7.9C73.48 7.76667 73.5467 7.7 73.68 7.7C73.84 7.7 73.92 7.76667 73.92 7.9C73.92 8.24667 74.12 8.47333 74.52 8.58C74.92 8.66 75.4267 8.7 76.04 8.7C78.3333 8.75333 80.3467 8.78 82.08 8.78L85.56 8.74C86.0133 8.71333 86.6267 8.7 87.4 8.7C88.4133 8.7 89.1467 8.64667 89.6 8.54C90.08 8.40667 90.3867 8.14 90.52 7.74C90.5733 7.66 90.6667 7.62 90.8 7.62C90.9333 7.62 91 7.66 91 7.74C90.8133 11.18 90.72 13.3 90.72 14.1C90.72 14.1533 90.64 14.18 90.48 14.18C90.3467 14.18 90.28 14.1533 90.28 14.1C90.1733 12.4733 89.7733 11.2867 89.08 10.54C88.4133 9.76667 87.3867 9.38 86 9.38C85.0133 9.38 84.3467 9.56667 84 9.94C83.68 10.2867 83.52 10.98 83.52 12.02V24.26C83.52 25.0867 83.6 25.6867 83.76 26.06C83.92 26.4333 84.2267 26.6867 84.68 26.82C85.1333 26.9533 85.8533 27.02 86.84 27.02C86.8933 27.02 86.92 27.1 86.92 27.26C86.92 27.42 86.8933 27.5 86.84 27.5C85.96 27.5 85.28 27.4867 84.8 27.46L82 27.42L79.24 27.46C78.7333 27.4867 78.04 27.5 77.16 27.5C77.1067 27.5 77.08 27.42 77.08 27.26C77.08 27.1 77.1067 27.02 77.16 27.02C78.1467 27.02 78.8667 26.9533 79.32 26.82C79.7733 26.6867 80.08 26.4333 80.24 26.06C80.4267 25.66 80.52 25.06 80.52 24.26V11.94C80.52 11.1933 80.4667 10.6467 80.36 10.3C80.2533 9.95333 80.04 9.71333 79.72 9.58C79.4 9.44667 78.88 9.38 78.16 9.38ZM104.282 17.1C106.442 17.1533 108.109 17.58 109.282 18.38C110.455 19.18 111.042 20.3267 111.042 21.82C111.042 22.9667 110.709 23.98 110.042 24.86C109.402 25.74 108.509 26.4333 107.362 26.94C106.215 27.42 104.909 27.66 103.442 27.66C102.722 27.66 101.895 27.62 100.962 27.54C100.589 27.5133 100.135 27.4867 99.6019 27.46C99.0952 27.4333 98.5485 27.42 97.9619 27.42L95.5219 27.46C95.0685 27.4867 94.4419 27.5 93.6419 27.5C93.5885 27.5 93.5619 27.42 93.5619 27.26C93.5619 27.1 93.5885 27.02 93.6419 27.02C94.5219 27.02 95.1619 26.9533 95.5619 26.82C95.9619 26.6867 96.2285 26.4333 96.3619 26.06C96.4952 25.66 96.5619 25.06 96.5619 24.26V12.02C96.5619 11.22 96.4952 10.6333 96.3619 10.26C96.2285 9.88667 95.9619 9.63333 95.5619 9.5C95.1619 9.34 94.5485 9.26 93.7219 9.26C93.6419 9.26 93.6019 9.18 93.6019 9.02C93.6019 8.86 93.6419 8.78 93.7219 8.78L95.5219 8.82C96.5352 8.87333 97.3485 8.9 97.9619 8.9C98.6819 8.9 99.4419 8.86 100.242 8.78C100.509 8.75333 100.895 8.72667 101.402 8.7C101.935 8.67333 102.402 8.66 102.802 8.66C104.722 8.66 106.229 9.00667 107.322 9.7C108.415 10.3933 108.962 11.3667 108.962 12.62C108.962 13.82 108.455 14.86 107.442 15.74C106.429 16.62 105.055 17.2067 103.322 17.5L104.282 17.1ZM101.802 9.18C101.162 9.18 100.682 9.26 100.362 9.42C100.042 9.55333 99.8152 9.83333 99.6819 10.26C99.5485 10.66 99.4819 11.2733 99.4819 12.1V17.26L98.2419 17.02C98.7752 17.1 99.4952 17.14 100.402 17.14C101.815 17.14 102.895 17.0733 103.642 16.94C104.389 16.78 104.962 16.4467 105.362 15.94C105.762 15.4067 105.962 14.58 105.962 13.46C105.962 10.6067 104.575 9.18 101.802 9.18ZM102.762 27.02C106.175 27.02 107.882 25.5933 107.882 22.74C107.882 21.22 107.349 20.0333 106.282 19.18C105.215 18.3 103.562 17.86 101.322 17.86C99.9619 17.86 98.9352 17.9267 98.2419 18.06L99.4819 17.7V24.26C99.4819 25.2733 99.6952 25.9933 100.122 26.42C100.575 26.82 101.455 27.02 102.762 27.02ZM120.396 24.26C120.396 25.06 120.463 25.66 120.596 26.06C120.73 26.4333 120.983 26.6867 121.356 26.82C121.756 26.9533 122.383 27.02 123.236 27.02C123.316 27.02 123.356 27.1 123.356 27.26C123.356 27.42 123.316 27.5 123.236 27.5C122.463 27.5 121.863 27.4867 121.436 27.46L118.876 27.42L116.396 27.46C115.943 27.4867 115.316 27.5 114.516 27.5C114.463 27.5 114.436 27.42 114.436 27.26C114.436 27.1 114.463 27.02 114.516 27.02C115.37 27.02 115.996 26.9533 116.396 26.82C116.796 26.6867 117.063 26.4333 117.196 26.06C117.356 25.66 117.436 25.06 117.436 24.26V12.02C117.436 11.22 117.356 10.6333 117.196 10.26C117.063 9.88667 116.796 9.63333 116.396 9.5C115.996 9.34 115.37 9.26 114.516 9.26C114.463 9.26 114.436 9.18 114.436 9.02C114.436 8.86 114.463 8.78 114.516 8.78L116.396 8.82C117.41 8.87333 118.236 8.9 118.876 8.9C119.543 8.9 120.41 8.87333 121.476 8.82L123.236 8.78C123.316 8.78 123.356 8.86 123.356 9.02C123.356 9.18 123.316 9.26 123.236 9.26C122.41 9.26 121.796 9.34 121.396 9.5C121.023 9.66 120.756 9.94 120.596 10.34C120.463 10.7133 120.396 11.3 120.396 12.1V24.26ZM129.992 27.82C129.806 27.82 129.619 27.78 129.432 27.7C129.272 27.6467 129.192 27.58 129.192 27.5V12.02C129.192 11.22 129.126 10.6333 128.992 10.26C128.859 9.88667 128.592 9.63333 128.192 9.5C127.792 9.34 127.179 9.26 126.352 9.26C126.272 9.26 126.232 9.18 126.232 9.02C126.232 8.86 126.272 8.78 126.352 8.78L128.152 8.82C129.166 8.87333 129.992 8.9 130.632 8.9C131.299 8.9 132.139 8.87333 133.152 8.82L134.952 8.78C135.032 8.78 135.072 8.86 135.072 9.02C135.072 9.18 135.032 9.26 134.952 9.26C134.126 9.26 133.512 9.34 133.112 9.5C132.712 9.63333 132.446 9.88667 132.312 10.26C132.179 10.6333 132.112 11.22 132.112 12.02V24.98L131.192 25.18L144.512 8.58C144.646 8.5 144.779 8.46 144.912 8.46C145.099 8.46 145.272 8.48667 145.432 8.54C145.619 8.59333 145.712 8.67333 145.712 8.78V24.26C145.712 25.06 145.779 25.66 145.912 26.06C146.072 26.4333 146.352 26.6867 146.752 26.82C147.152 26.9533 147.779 27.02 148.632 27.02C148.686 27.02 148.712 27.1 148.712 27.26C148.712 27.42 148.686 27.5 148.632 27.5C147.832 27.5 147.206 27.4867 146.752 27.46L144.312 27.42L141.752 27.46C141.326 27.4867 140.726 27.5 139.952 27.5C139.899 27.5 139.872 27.42 139.872 27.26C139.872 27.1 139.899 27.02 139.952 27.02C140.806 27.02 141.419 26.9533 141.792 26.82C142.192 26.6867 142.459 26.4333 142.592 26.06C142.752 25.66 142.832 25.06 142.832 24.26V11.42L143.712 11.1L130.392 27.7C130.312 27.78 130.179 27.82 129.992 27.82ZM137.752 5.02C138.552 5.02 139.112 4.80667 139.432 4.38C139.779 3.95333 140.032 3.36667 140.192 2.62C140.352 1.92667 140.539 1.42 140.752 1.1C140.966 0.753332 141.339 0.579998 141.872 0.579998C142.299 0.579998 142.619 0.699999 142.832 0.939999C143.072 1.18 143.192 1.5 143.192 1.9C143.192 2.54 142.939 3.15333 142.432 3.74C141.926 4.3 141.246 4.75333 140.392 5.1C139.566 5.42 138.699 5.58 137.792 5.58C136.859 5.58 135.966 5.40667 135.112 5.06C134.286 4.71333 133.619 4.26 133.112 3.7C132.606 3.11333 132.352 2.5 132.352 1.86C132.352 1.46 132.459 1.15333 132.672 0.939999C132.912 0.699999 133.246 0.579998 133.672 0.579998C134.259 0.579998 134.646 0.753332 134.832 1.1C135.046 1.42 135.232 1.95333 135.392 2.7C135.552 3.44667 135.779 4.02 136.072 4.42C136.366 4.82 136.926 5.02 137.752 5.02ZM161.218 27.5C161.165 27.5 161.138 27.42 161.138 27.26C161.138 27.1 161.165 27.02 161.218 27.02C162.072 27.02 162.685 26.9533 163.058 26.82C163.458 26.6867 163.725 26.4333 163.858 26.06C164.018 25.66 164.098 25.06 164.098 24.26V12.02C164.098 11.22 164.018 10.6333 163.858 10.26C163.725 9.88667 163.458 9.63333 163.058 9.5C162.658 9.34 162.045 9.26 161.218 9.26C161.165 9.26 161.138 9.18 161.138 9.02C161.138 8.86 161.165 8.78 161.218 8.78H175.778C176.018 8.78 176.138 8.88667 176.138 9.1C176.138 10.62 176.098 12.3 176.018 14.14C176.018 14.22 175.938 14.26 175.778 14.26C175.645 14.26 175.565 14.22 175.538 14.14C175.245 12.6733 174.698 11.5533 173.898 10.78C173.125 9.98 172.138 9.58 170.938 9.58H169.778C168.952 9.58 168.352 9.64667 167.978 9.78C167.605 9.88667 167.352 10.1133 167.218 10.46C167.085 10.8067 167.018 11.34 167.018 12.06V24.1C167.018 24.9533 167.112 25.58 167.298 25.98C167.485 26.3533 167.832 26.62 168.338 26.78C168.872 26.94 169.698 27.02 170.818 27.02C170.898 27.02 170.938 27.1 170.938 27.26C170.938 27.42 170.898 27.5 170.818 27.5C169.858 27.5 169.112 27.4867 168.578 27.46L165.538 27.42L163.218 27.46C162.765 27.4867 162.098 27.5 161.218 27.5ZM184.926 24.26C184.926 25.06 184.993 25.66 185.126 26.06C185.259 26.4333 185.513 26.6867 185.886 26.82C186.286 26.9533 186.913 27.02 187.766 27.02C187.846 27.02 187.886 27.1 187.886 27.26C187.886 27.42 187.846 27.5 187.766 27.5C186.993 27.5 186.393 27.4867 185.966 27.46L183.406 27.42L180.926 27.46C180.473 27.4867 179.846 27.5 179.046 27.5C178.993 27.5 178.966 27.42 178.966 27.26C178.966 27.1 178.993 27.02 179.046 27.02C179.899 27.02 180.526 26.9533 180.926 26.82C181.326 26.6867 181.593 26.4333 181.726 26.06C181.886 25.66 181.966 25.06 181.966 24.26V12.02C181.966 11.22 181.886 10.6333 181.726 10.26C181.593 9.88667 181.326 9.63333 180.926 9.5C180.526 9.34 179.899 9.26 179.046 9.26C178.993 9.26 178.966 9.18 178.966 9.02C178.966 8.86 178.993 8.78 179.046 8.78L180.926 8.82C181.939 8.87333 182.766 8.9 183.406 8.9C184.073 8.9 184.939 8.87333 186.006 8.82L187.766 8.78C187.846 8.78 187.886 8.86 187.886 9.02C187.886 9.18 187.846 9.26 187.766 9.26C186.939 9.26 186.326 9.34 185.926 9.5C185.553 9.66 185.286 9.94 185.126 10.34C184.993 10.7133 184.926 11.3 184.926 12.1V24.26ZM190.762 33.58C190.762 31.74 190.695 30.0867 190.562 28.62C190.509 27.98 190.482 27.5533 190.482 27.34C190.482 27.02 190.495 26.8333 190.522 26.78C190.575 26.7 190.695 26.66 190.882 26.66H211.082C211.269 26.66 211.375 26.7133 211.402 26.82C211.455 26.9 211.482 27.0733 211.482 27.34C211.482 27.5533 211.455 27.98 211.402 28.62C211.269 30.1667 211.202 31.82 211.202 33.58C211.202 33.7133 211.122 33.78 210.962 33.78C210.829 33.78 210.762 33.7133 210.762 33.58C210.762 29.5267 209.175 27.5 206.002 27.5H195.682C192.722 27.5 191.242 29.5267 191.242 33.58C191.242 33.7133 191.162 33.78 191.002 33.78C190.842 33.78 190.762 33.7133 190.762 33.58ZM199.282 11.74L200.562 10.14L193.602 27.5H192.482L200.402 8.18C200.455 8.07333 200.535 8.02 200.642 8.02C200.749 8.02 200.815 8.07333 200.842 8.18L209.682 27.5H206.482L199.282 11.74Z" fill="#F2A83B"/>
<path d="M75.96 56.5C75.9067 56.5 75.88 56.42 75.88 56.26C75.88 56.1 75.9067 56.02 75.96 56.02C77.5867 56.02 79.0133 55.5667 80.24 54.66C81.4667 53.7267 82.48 52.4467 83.28 50.82L88.16 41.14C88.4 40.66 88.52 40.22 88.52 39.82C88.52 38.78 87.6267 38.26 85.84 38.26C85.76 38.26 85.72 38.18 85.72 38.02C85.72 37.86 85.76 37.78 85.84 37.78L87.08 37.82C87.7733 37.8733 88.44 37.9 89.08 37.9C89.5867 37.9 90.1867 37.8733 90.88 37.82L92.12 37.78C92.2 37.78 92.24 37.86 92.24 38.02C92.24 38.18 92.2 38.26 92.12 38.26C91.1067 38.26 90.0933 39.3 89.08 41.38L83.2 53.14L82.36 54.86C82.04 55.58 81.7867 56.0333 81.6 56.22C81.44 56.4067 81.1733 56.5 80.8 56.5H75.96ZM75.52 41.1C74.96 40.06 74.3867 39.3267 73.8 38.9C73.24 38.4733 72.6133 38.26 71.92 38.26C71.84 38.26 71.8 38.18 71.8 38.02C71.8 37.86 71.84 37.78 71.92 37.78L73.64 37.82C74.6 37.8733 75.36 37.9 75.92 37.9C76.6133 37.9 77.4133 37.8733 78.32 37.82L80 37.78C80.08 37.78 80.12 37.86 80.12 38.02C80.12 38.18 80.08 38.26 80 38.26C78.7467 38.26 78.12 38.62 78.12 39.34C78.12 39.74 78.2667 40.1933 78.56 40.7L84.08 50.62L82.28 53.34L75.52 41.1ZM108.865 53.1C108.865 53.9267 108.959 54.54 109.145 54.94C109.332 55.34 109.679 55.62 110.185 55.78C110.719 55.94 111.545 56.02 112.665 56.02C112.745 56.02 112.785 56.1 112.785 56.26C112.785 56.42 112.745 56.5 112.665 56.5C111.705 56.5 110.945 56.4867 110.385 56.46L107.425 56.42L104.945 56.46C104.492 56.4867 103.865 56.5 103.065 56.5C103.012 56.5 102.985 56.42 102.985 56.26C102.985 56.1 103.012 56.02 103.065 56.02C103.892 56.02 104.505 55.9533 104.905 55.82C105.305 55.6867 105.572 55.4333 105.705 55.06C105.865 54.66 105.945 54.06 105.945 53.26V41.02C105.945 40.22 105.865 39.6333 105.705 39.26C105.572 38.8867 105.305 38.6333 104.905 38.5C104.505 38.34 103.892 38.26 103.065 38.26C103.012 38.26 102.985 38.18 102.985 38.02C102.985 37.86 103.012 37.78 103.065 37.78L104.905 37.82C105.972 37.8733 106.799 37.9 107.385 37.9C108.079 37.9 108.839 37.86 109.665 37.78C109.959 37.7533 110.305 37.7267 110.705 37.7C111.132 37.6733 111.599 37.66 112.105 37.66C116.585 37.66 118.825 39.2467 118.825 42.42C118.825 43.7 118.492 44.7933 117.825 45.7C117.185 46.58 116.359 47.2467 115.345 47.7C114.332 48.1267 113.279 48.34 112.185 48.34C111.572 48.34 111.065 48.3 110.665 48.22C110.585 48.1667 110.545 48.0867 110.545 47.98C110.545 47.7933 110.612 47.7 110.745 47.7C110.932 47.7 111.105 47.7133 111.265 47.74C111.452 47.7667 111.639 47.78 111.825 47.78C112.892 47.78 113.772 47.4067 114.465 46.66C115.185 45.8867 115.545 44.7533 115.545 43.26C115.545 41.58 115.159 40.3267 114.385 39.5C113.612 38.6733 112.532 38.26 111.145 38.26C110.532 38.26 110.065 38.3267 109.745 38.46C109.452 38.5667 109.225 38.82 109.065 39.22C108.932 39.62 108.865 40.2467 108.865 41.1V53.1ZM125.539 56.82C125.352 56.82 125.166 56.78 124.979 56.7C124.819 56.6467 124.739 56.58 124.739 56.5V41.02C124.739 40.22 124.672 39.6333 124.539 39.26C124.406 38.8867 124.139 38.6333 123.739 38.5C123.339 38.34 122.726 38.26 121.899 38.26C121.819 38.26 121.779 38.18 121.779 38.02C121.779 37.86 121.819 37.78 121.899 37.78L123.699 37.82C124.712 37.8733 125.539 37.9 126.179 37.9C126.846 37.9 127.686 37.8733 128.699 37.82L130.499 37.78C130.579 37.78 130.619 37.86 130.619 38.02C130.619 38.18 130.579 38.26 130.499 38.26C129.672 38.26 129.059 38.34 128.659 38.5C128.259 38.6333 127.992 38.8867 127.859 39.26C127.726 39.6333 127.659 40.22 127.659 41.02V53.98L126.739 54.18L140.059 37.58C140.192 37.5 140.326 37.46 140.459 37.46C140.646 37.46 140.819 37.4867 140.979 37.54C141.166 37.5933 141.259 37.6733 141.259 37.78V53.26C141.259 54.06 141.326 54.66 141.459 55.06C141.619 55.4333 141.899 55.6867 142.299 55.82C142.699 55.9533 143.326 56.02 144.179 56.02C144.232 56.02 144.259 56.1 144.259 56.26C144.259 56.42 144.232 56.5 144.179 56.5C143.379 56.5 142.752 56.4867 142.299 56.46L139.859 56.42L137.299 56.46C136.872 56.4867 136.272 56.5 135.499 56.5C135.446 56.5 135.419 56.42 135.419 56.26C135.419 56.1 135.446 56.02 135.499 56.02C136.352 56.02 136.966 55.9533 137.339 55.82C137.739 55.6867 138.006 55.4333 138.139 55.06C138.299 54.66 138.379 54.06 138.379 53.26V40.42L139.259 40.1L125.939 56.7C125.859 56.78 125.726 56.82 125.539 56.82ZM150.11 38.66L150.91 38.78L150.55 51.94C150.524 53.4067 150.71 54.46 151.11 55.1C151.537 55.7133 152.257 56.02 153.27 56.02C153.35 56.02 153.39 56.1 153.39 56.26C153.39 56.42 153.35 56.5 153.27 56.5C152.684 56.5 152.23 56.4867 151.91 56.46L150.11 56.42L148.35 56.46C148.004 56.4867 147.51 56.5 146.87 56.5C146.817 56.5 146.79 56.42 146.79 56.26C146.79 56.1 146.817 56.02 146.87 56.02C147.857 56.02 148.564 55.7133 148.99 55.1C149.444 54.46 149.697 53.4067 149.75 51.94L150.11 38.66ZM171.99 56.02C172.044 56.02 172.07 56.1 172.07 56.26C172.07 56.42 172.044 56.5 171.99 56.5C171.244 56.5 170.657 56.4867 170.23 56.46L167.87 56.42L165.15 56.46C164.697 56.4867 164.07 56.5 163.27 56.5C163.217 56.5 163.19 56.42 163.19 56.26C163.19 56.1 163.217 56.02 163.27 56.02C164.177 56.02 164.844 55.9533 165.27 55.82C165.724 55.66 166.017 55.3933 166.15 55.02C166.31 54.6467 166.377 54.06 166.35 53.26L165.75 39.02L166.59 38.26L159.11 56.22C159.057 56.3267 158.964 56.38 158.83 56.38C158.67 56.38 158.564 56.3267 158.51 56.22L150.83 41.1C149.87 39.2067 148.63 38.26 147.11 38.26C147.057 38.26 147.03 38.18 147.03 38.02C147.03 37.86 147.057 37.78 147.11 37.78L149.67 37.82L151.75 37.78C152.097 37.78 152.377 37.9133 152.59 38.18C152.83 38.42 153.177 38.98 153.63 39.86L160.11 52.66L158.79 55.1L165.55 38.78C165.657 38.4867 165.83 38.2467 166.07 38.06C166.31 37.8733 166.55 37.78 166.79 37.78L168.99 37.82L171.79 37.78C171.844 37.78 171.87 37.86 171.87 38.02C171.87 38.18 171.844 38.26 171.79 38.26C170.67 38.26 169.87 38.4467 169.39 38.82C168.937 39.1667 168.737 39.8733 168.79 40.94L169.31 53.26C169.364 54.0867 169.457 54.6867 169.59 55.06C169.724 55.4333 169.964 55.6867 170.31 55.82C170.657 55.9533 171.217 56.02 171.99 56.02ZM180.971 53.26C180.971 54.06 181.038 54.66 181.171 55.06C181.305 55.4333 181.558 55.6867 181.931 55.82C182.331 55.9533 182.958 56.02 183.811 56.02C183.891 56.02 183.931 56.1 183.931 56.26C183.931 56.42 183.891 56.5 183.811 56.5C183.038 56.5 182.438 56.4867 182.011 56.46L179.451 56.42L176.971 56.46C176.518 56.4867 175.891 56.5 175.091 56.5C175.038 56.5 175.011 56.42 175.011 56.26C175.011 56.1 175.038 56.02 175.091 56.02C175.945 56.02 176.571 55.9533 176.971 55.82C177.371 55.6867 177.638 55.4333 177.771 55.06C177.931 54.66 178.011 54.06 178.011 53.26V41.02C178.011 40.22 177.931 39.6333 177.771 39.26C177.638 38.8867 177.371 38.6333 176.971 38.5C176.571 38.34 175.945 38.26 175.091 38.26C175.038 38.26 175.011 38.18 175.011 38.02C175.011 37.86 175.038 37.78 175.091 37.78L176.971 37.82C177.985 37.8733 178.811 37.9 179.451 37.9C180.118 37.9 180.985 37.8733 182.051 37.82L183.811 37.78C183.891 37.78 183.931 37.86 183.931 38.02C183.931 38.18 183.891 38.26 183.811 38.26C182.985 38.26 182.371 38.34 181.971 38.5C181.598 38.66 181.331 38.94 181.171 39.34C181.038 39.7133 180.971 40.3 180.971 41.1V53.26Z" fill="#F2A83B"/>
<path d="M193.182 47.5L192.206 47.7117C192.42 48.0794 192.471 54.4494 192.098 54.5361C189.79 54.8098 188.666 55.5494 192.584 55.4974C196.029 55.3729 195.409 54.7608 193.1 54.49C192.614 54.0395 192.988 49.5456 193.182 47.5Z" fill="#D9D9D9"/>
<path d="M191.975 39.376L191.434 45.8684L191.701 46.3279M191.904 54.8026C192.398 55.1248 192.658 55.1529 193.083 54.8026M190.758 43.5837C192.207 42.601 193.05 41.9845 194.377 40.5139M192.123 46.6318C193.095 46.6661 193.437 46.5 193.769 45.9488M194.091 37.7617L194.318 40.6198L190.795 43.5837L191.25 37.7617L192.727 37.55L194.091 37.7617ZM190.795 43.6896C190.795 43.7954 190.682 46.1242 190.682 46.1242L192.273 47.712L193.182 47.5003L194.659 46.1242L194.318 40.7256C192.874 42.2725 190.795 43.5837 190.795 43.6896ZM191.179 37.6653C191.95 37.5204 193.521 37.3544 194.166 37.7259L194.787 46.0869C194.747 46.2527 193.218 47.4023 193.075 47.7903C192.881 49.8359 192.614 54.0396 193.1 54.49C195.409 54.7608 196.029 55.3729 192.584 55.4974C188.666 55.5494 189.79 54.8099 192.098 54.5362C192.471 54.4494 192.457 48.1169 192.244 47.7493C192.03 47.3817 190.568 46.2907 190.583 46.1273L191.179 37.6653Z" stroke="#5F5F5F" stroke-width="0.3"/>
<path d="M193 36.25L193.8 34.5M193.8 36.5L195 36" stroke="#F2A83B" stroke-width="0.3"/>
<path d="M193 36.5L192 34.5" stroke="#F2A83B" stroke-width="0.3" stroke-dasharray="1 1"/>
<rect x="76" y="66.5" width="45" height="3" fill="#29595C"/>
<rect x="121" y="66.5" width="45" height="3" fill="white"/>
<rect x="166" y="66.5" width="45" height="3" fill="#C66A6B"/>
</svg>
